<svg xmlns="http://www.w3.org/2000/svg" viewBox="0 0 435.17 98.39"><defs><style>.cls-1{fill:#fff;stroke:#000;stroke-miterlimit:10;}</style></defs><g id="A_Logo" data-name="A Logo"><path class="cls-1" d="M204.4,155.47a7.13,7.13,0,0,1-3.56,6.16,7,7,0,0,1-2.16.82h-2.74a6.92,6.92,0,0,1-2.22-.83,7,7,0,0,1-2.61-2.6l-.23-.42-1.1-2h0l-3.92-7-36.26-65h0a7.28,7.28,0,0,0-.52-1.14,7.18,7.18,0,0,0-2.61-2.61,7.11,7.11,0,0,0-9.73,2.61L99.17,151.31l-3.51,6.34h0L95,158.84l-.23.42a7.08,7.08,0,0,1-2.6,2.61,7.11,7.11,0,0,1-9.73-2.61,7.08,7.08,0,0,1,0-7.12l9.37-16.25,0-.06q.19-.39.42-.78L127,74.81a18.32,18.32,0,0,1,31.72,0l18.12,31.39,26.31,45.31.11.17c0,.07.09.15.14.23A7.07,7.07,0,0,1,204.4,155.47Z" transform="translate(-80.98 -64.94)"/><path class="cls-1" d="M174.24,162.72H110.57a7.48,7.48,0,0,1-7-10.21l33.3-60.15a6.31,6.31,0,0,1,10.94,0,6.59,6.59,0,0,1,.47,1h0L180.47,151l.37.7A7.48,7.48,0,0,1,174.24,162.72Z" transform="translate(-80.98 -64.94)"/></g><g id="TLAS"><path class="cls-1" d="M514.7,105.27a7.21,7.21,0,0,1,.95,3.44v.19l-.22,46.27v0c0,.16,0,.34,0,.49a7,7,0,0,1-.86,3.39,7.13,7.13,0,0,1-5.6,3.72h-1.35l-76.39,0h-.5a7,7,0,0,1-3.32-1,7.13,7.13,0,0,1-2.61-2.62l-.28-.53L385.26,84.36a2.78,2.78,0,0,0-4.91,0l-39.8,74.26-.22.41a7.27,7.27,0,0,1-2.46,2.53,7.19,7.19,0,0,1-3.47,1H280.27a7.1,7.1,0,0,1-3.57-1,7.23,7.23,0,0,1-2.62-2.62,7.09,7.09,0,0,1-1-3.58V82.52a2.79,2.79,0,0,0-2.78-2.78H235.9a2.78,2.78,0,0,0-2.78,2.78v72.93a7.06,7.06,0,0,1-1,3.57,7.12,7.12,0,0,1-9.77,2.62,7.23,7.23,0,0,1-2.62-2.62,7.09,7.09,0,0,1-1-3.58V82.52A2.79,2.79,0,0,0,216,79.74H171.66A7.16,7.16,0,0,1,165.46,69a7.05,7.05,0,0,1,2.62-2.61,7.24,7.24,0,0,1,3.58-1H280.27a7.24,7.24,0,0,1,3.58,1A7.05,7.05,0,0,1,286.47,69a7.15,7.15,0,0,1,.95,3.57v72.94a2.77,2.77,0,0,0,2.78,2.78l39.84,0,5.39-9.18,1.72-3.34,0-.06c.12-.26.24-.51.37-.77l31.09-60.31c2.92-5.67,7.86-8.71,13-9.12a17,17,0,0,1,2.47,0A16.11,16.11,0,0,1,397,74.67l16.2,31.43,22,42.47h63.27a2.78,2.78,0,0,0,2.78-2.76l.08-27a2.78,2.78,0,0,0-2.78-2.8H430.91a7.14,7.14,0,0,1-6.2-3.56,7.06,7.06,0,0,1-.95-3.29V72.37a7.1,7.1,0,0,1,3.57-6,7.24,7.24,0,0,1,3.58-1H508.5a7.24,7.24,0,0,1,3.58,1A7.05,7.05,0,0,1,514.7,69a7.22,7.22,0,0,1,0,7.16A7.15,7.15,0,0,1,509,79.73H440.84a2.77,2.77,0,0,0-2.78,2.77V98.93a2.78,2.78,0,0,0,2.78,2.77H508.5a7.24,7.24,0,0,1,3.58,1A7.16,7.16,0,0,1,514.7,105.27Z" transform="translate(-80.98 -64.94)"/></g></svg>